Patient4_TMGait_0pt5_01_right_31_EMG.mot
version=1
nRows=36
nColumns=33
inDegrees=no
endheader
time	1LAddLong	2LGlutMax	3LGlutMed	4LIliopsoas	5LSemiMemb	6LBicFemLong	7LRecFem	8LVastMed	9LVastLat	10LGasMed	11LTibAnt	12lTibPost	13LPeroneusLong	14LSol	15LExtDigLong	16LFlexDigLong	17RAddLong	18RGlutMax	19RGlutMed	20RIliopsoas	21RSemiMemb	22RBicFemLong	23RRecFem	24RVastMed	25RVastLat	26RGasMed	27RTibAnt	28RTibPost	29RPeroneusLong	30RSol	31RExtDigLong	32RFlexDigLong
41.675	0.007782	-0.10757	0.009766	0.003052	0.14801	0.019684	0.089722	0.008392	-0.13687	0.022736	0.012512	0.011139	0.021515	-0.006714	0.038147	0.001068	-0.000153	0.38666	0.39002	0	-0.11307	0.029449	-0.20874	0.018921	0.11856	0.054474	-0.037994	-0.016479	0.061646	-0.18036	0.002136	-0.014038
41.676	-0.008087	-0.027161	0.006104	0.004578	0.053406	-0.08606	0.007935	0.022278	-0.14984	0.013885	0.018463	0.001221	0.044403	0.002441	0.044556	0.01236	0.003052	0.43167	0.4158	0.016022	-0.18341	-0.09903	-0.12054	0.014801	0.063324	0.059967	-0.017395	-0.019836	0.017395	-0.12543	0.003815	-0.016785
41.677	-0.015564	0.065002	0.014954	-0.010681	-0.037384	-0.24872	-0.024414	0.012512	-0.10468	0.010529	0.007477	-0.007935	0.050507	0.016479	0.029449	-0.000763	0.018768	0.51132	0.19241	-0.006104	-0.1651	-0.17029	-0.13916	-0.060577	0.024719	0.040741	-0.024872	-0.02182	-0.033722	0.001831	0.004272	-0.007629
41.678	-0.009918	0.065613	0.023193	0.010681	-0.049438	-0.36911	-0.050049	0.014191	-0.094604	0.018463	0.016022	0.001526	0.044098	0.030975	0.010681	0.000458	0.04776	0.51804	0.4393	-0.009613	0.004272	-0.19684	-0.18753	-0.033417	0.024261	0.04303	-0.058289	-0.012665	0.016479	0.45548	0.002899	-0.007935
41.679	0.023346	0.093536	0.023651	0.007324	0.025482	-0.42053	-0.065613	0.011597	-0.065308	0.011597	0.018005	0.010223	-0.007324	0.033875	0.009308	0.000305	0.066681	0.48675	0.31342	-0.033112	-0.006561	-0.20355	-0.18082	-0.09201	0.031433	0.018616	-0.009308	0.000153	-0.12085	0.54932	0.005341	-0.006104
41.68	0.051575	0.078888	0.029297	0.006256	0.067596	-0.43335	-0.066986	-0.004272	-0.003967	0.009003	0.00885	0.011139	-0.06485	0.031433	0.003357	0.007019	0.044861	0.46417	0.1889	-0.02655	-0.33478	-0.073853	-0.21011	-0.032043	0.024414	-0.028992	0.03479	-0.014191	-0.46463	0.30289	0.002441	-0.014038
41.681	0.061798	0.12116	0.025787	0.019226	0.097351	-0.33279	0.025635	-0.011139	0.064697	0.009155	0.014801	0.006866	-0.05249	0.036163	0.009613	0.007629	0.019379	0.4657	0.1236	-0.050659	-0.46921	0.008545	-0.15076	-0.081024	0.020142	-0.021057	0.040894	-0.010529	-0.71518	0.085602	0.003357	-0.008545
41.682	0.03418	0.17654	0.040588	0.006104	0.1294	-0.15411	0.080872	-0.009918	0.083771	0.007782	0.013885	0.000763	-0.044403	0.04364	0.005341	0.004272	0.001068	0.44327	0.21591	-0.041504	-0.51392	-0.029449	-0.17532	-0.094757	0.012512	0.001373	0.001068	-0.019836	-0.50186	0.030212	-0.001526	-0.009766
41.683	0.011902	0.1471	0.018616	-0.00351	0.066223	0.009308	0.04303	-0.005188	0.21545	0.000305	0.022888	0.009155	-0.007782	0.049133	0.008087	0.00351	-0.049591	0.50125	0.10162	-0.014801	-0.25696	-0.064545	-0.16724	0.006714	0.027313	-0.059814	0.010834	-0.061646	-0.1326	0.003967	0.006714	-0.017853
41.684	0.005951	0.046387	0.011139	0.014038	-0.005798	0.12817	-0.00351	-0.007019	0.21957	-0.004578	0.009613	0.010376	0.021973	0.053711	0.026703	0.002441	-0.045166	0.45761	0.1532	0.042267	0.009003	-0.11887	-0.16251	0.030518	0.023346	-0.073395	0.050049	-0.32211	-0.00473	0.014954	0.001068	-0.027771
41.685	-0.009918	-0.00824	0.001526	0.01358	-0.036469	0.18402	-0.047607	-0.009155	0.071716	0.012512	0.042114	0.008698	0.025177	0.032043	0.051727	0.001678	-0.053558	0.45609	0.12039	0.050964	0.13458	-0.20981	-0.18539	0.023651	0.035095	-0.061493	0.02121	-0.16296	0.10788	0.14465	0.003204	-0.02243
41.686	-0.017395	-0.078583	0.017548	0.014648	-0.032043	0.27176	-0.034637	-0.006866	-0.069275	0.02182	0.04425	0.012512	0.054169	0.037994	0.014038	0.00885	-0.040131	0.43015	0.056305	-0.004578	0.057068	-0.085144	-0.18249	-0.003967	0.029449	-0.13611	-0.021057	-0.22461	0.4863	-0.36163	0.00061	-0.018005
41.687	-0.019836	-0.096283	0.014954	0.004425	-0.015564	0.37369	-0.031891	-0.004578	-0.086212	0.021973	-0.023956	0.013733	0.074463	0.037689	-0.029602	0.018921	-0.02655	0.41763	0.065002	-0.11932	-0.009308	0.15411	-0.15976	0.027008	0.03891	-0.069122	0.018005	0.35751	0.3624	-0.54123	-0.002899	-0.012207
41.688	-0.009918	-0.1149	0.009918	0.010681	-0.081635	0.37811	0.023804	-0.01297	0.032349	0.007935	-0.006104	0.01297	0.05661	0.031433	-0.043335	0.019836	-0.015259	0.37155	0.072632	-0.17258	-0.010834	0.22675	-0.16663	0.003357	0.022736	0.020447	0.045166	0.36224	0.15701	-0.43869	0.002441	-0.011749
41.689	0.004272	-0.083771	0.035706	0.009308	-0.14755	0.30136	0.070801	0.007172	0.1297	0.014038	0.034943	0.018311	0.034027	0.041809	-0.022736	0.014648	0.018768	0.32745	0.15015	-0.11612	0.001831	0.18662	-0.16647	-0.023041	0.016174	0.025482	0.003357	0.17929	0.05722	-0.48675	0.002289	-0.019836
41.69	-0.002747	-0.09201	0.009308	0.001068	-0.14862	0.37537	0.087128	0.014954	0.092316	0.003967	0.024719	0.016022	-0.062408	0.021515	-0.025482	0.018311	0.049133	0.2919	0.1712	0.004883	-0.092773	0.11627	-0.12375	-0.06546	0.00824	0.010681	-0.001221	0.009308	0.27725	-0.075226	-0.000305	-0.016022
41.691	-0.022278	-0.10742	-0.030212	-0.007324	-0.16464	0.20966	-0.001984	0.028839	0.093994	0.01709	0.029449	0.012054	-0.093994	0.028839	-0.011902	0.022583	0.064697	0.26611	0.083008	0.17303	-0.11673	0.078125	-0.13901	-0.044556	0.024414	0.027466	-0.028381	-0.057068	0.50262	0.4303	-0.006714	-0.014191
41.692	-0.020905	-0.052795	-0.035095	0.009155	-0.1152	-0.0737	-0.11581	0.02533	0.13794	0.031738	0.019226	0.016632	0.024719	0.050964	-0.00473	0.021515	0.04425	0.29434	0.069275	0.21362	-0.090332	0.091858	-0.17593	-0.12436	0.021057	0.020599	-0.084839	0.093842	0.41534	0.50095	0.000916	-0.023041
41.693	-0.022583	-0.070648	-0.036469	0.015717	-0.001984	-0.063629	-0.069122	0.013275	0.16419	0.027924	0.018921	0.022125	0.12833	0.047302	0.002594	0.028534	0.014801	0.23071	0.052643	0.11078	-0.056152	0.20615	-0.21179	-0.087128	0.03479	-0.011444	-0.088806	-0.32959	0.31525	0.31418	-0.000153	-0.020905
41.694	0.001831	-0.051117	-0.016479	0.037231	0.2272	-0.24536	0.003357	0.01297	0.13458	-0.001831	0.017395	0.025787	0.18753	0.045319	-0.012512	0.024414	-0.006561	0.19028	0.049591	-0.021973	-0.19028	0.1828	-0.26627	-0.046234	0.035706	-0.020905	-0.085297	0.14069	0.23056	0.13626	0.000458	-0.028534
41.695	0.037079	-0.046844	0.005341	0.021973	0.26764	-0.59586	-0.020142	-0.001373	-0.014191	0.048981	-0.000916	0.021057	0.12772	0.054932	-0.019073	0.027924	-0.045929	0.10651	0.042877	-0.025787	-0.23727	0.062561	-0.25574	0.031891	0.029755	-0.011444	-0.1738	0.1532	0.23193	-0.010681	0.002747	-0.022888
41.696	0.049438	-0.017242	-0.002441	-0.013275	0.20584	-0.75424	-0.00412	-0.012665	-0.16571	0.021973	0.00412	0.023956	-0.054626	0.070496	-0.003662	0.034637	-0.028229	0.058136	-0.029449	0.003052	-0.14114	-0.13275	-0.21027	0.03067	0.019531	-0.016174	-0.25864	0.026398	0.095825	0.067596	0.000458	-0.016022
41.697	0.054169	-0.015411	-0.008545	0.013275	0.11047	-0.57861	0.019073	-0.00061	-0.23682	0.031128	-0.011749	0.023193	-0.40329	0.082245	-0.024719	0.026398	-0.045929	-0.025482	-0.058594	-0.035858	-0.18158	0.007324	-0.16892	-0.007935	-0.002747	-0.018921	-0.099182	-0.003662	0.10101	0.038757	0.003662	-0.014496
41.698	0.05249	0.03006	-0.032196	0.009613	0.077972	-0.36407	-0.028076	0.005493	-0.095062	-0.005341	-0.015717	0.022125	-0.18005	0.089417	-0.032959	0.023041	-0.046539	-0.000305	0.13702	-0.077362	0.20416	0.18646	-0.18219	-0.033875	-0.004272	-0.007935	0.14618	-0.02121	0.10971	-0.039368	0.002441	-0.012512
41.699	0.038757	0.003357	-0.033112	0.006409	0.018616	-0.12314	-0.025787	0.013733	0.018311	-0.003967	-0.011292	0.022125	-0.18219	0.08728	-0.031433	0.011749	-0.015259	-0.039215	0.13184	-0.072632	0.3418	0.067139	-0.19699	0.028076	0.016632	0.006409	0.28351	-0.037079	0.11139	-0.11337	0.001221	-0.01297
41.7	0.029297	0.025482	-0.020142	-0.013275	0.015869	-0.040131	-0.057831	0.006714	0.11841	-0.00946	0.00473	0.022125	0.06897	0.09552	-0.036316	0.001526	-0.010376	-0.080872	0.022125	-0.033875	0.24307	-0.054321	-0.16449	0.035858	0.006409	0.009308	0.30029	-0.030823	0.13199	-0.086517	-0.003662	-0.011597
41.701	0.02655	0.079346	-0.012665	-0.000763	0.05661	0.012665	0.018158	-0.006104	0.14069	-0.009613	0.004272	0.018616	0.079193	0.1091	-0.019226	-0.007324	0.031738	-0.11658	-0.046844	0	0.21316	-0.25681	-0.20325	0.005188	-0.013885	-0.009613	-0.22568	-0.034637	0.22644	-0.047302	-0.000305	-0.015259
41.702	0.009308	0.14282	0.041199	0.017395	0.010376	-0.21561	0.036469	-0.002899	0.1059	0.001221	0.009308	0.019531	0.010071	0.11734	-0.015259	-0.009155	0.098114	-0.082245	0.069275	-0.053101	0.1265	-0.31677	-0.13504	-0.053253	-0.030823	-0.072632	-0.29434	-0.033875	0.17456	-0.055237	0.001678	-0.011139
41.703	-0.025787	0.19486	0.081329	0.036469	-0.015106	-0.31281	0.029755	0.011597	0.04776	0.010071	0.013733	0.022278	-0.038147	0.11139	-0.00946	-0.006866	0.14343	-0.13519	0.17075	-0.096283	0.032043	-0.33768	-0.18402	-0.05249	-0.019989	-0.10834	0.011749	-0.052948	0.057373	-0.041962	0.001221	-0.014496
41.704	-0.018463	0.26672	0.077972	0.02594	0.012512	-0.11566	0.048523	0.029144	-0.063171	0.001678	0.009766	0.019073	-0.093994	0.14191	-0.007935	-0.022888	0.12955	-0.14755	0.33722	-0.12375	-0.061188	-0.40451	-0.22629	0.018158	-0.001984	-0.043793	0.17029	-0.042725	-0.080566	-0.12131	0.002747	-0.008087
41.705	-0.026398	0.28961	0.059662	0.016937	0.027618	-0.027161	0.03418	0.036774	-0.14755	0.002289	0.009918	0.0177	-0.099945	0.14328	-0.003815	-0.021515	0.079193	-0.19043	0.061798	-0.031738	-0.11856	-0.42984	-0.22232	-0.04364	0.00885	-0.004578	0.08728	-0.045319	-0.025787	-0.2124	0.000305	-0.01236
41.706	-0.026093	0.31204	0.054321	0.001984	0.017395	-0.019073	0.00351	0.028229	-0.30838	0.002441	0.004883	0.015564	-0.075684	0.16251	-0.010834	-0.031433	0.054016	-0.16037	-0.091705	0.043335	-0.25452	-0.55084	-0.24277	-0.026398	0.020447	-0.011139	0.043335	-0.058136	-0.009308	-0.33127	-0.000458	-0.017395
41.707	-0.02655	0.31494	0.046539	-0.005798	0.028381	0.033722	0.002899	0.008087	-0.32959	0.00473	-0.001526	0.011444	-0.06546	0.16708	-0.007019	-0.037994	0.008087	-0.17105	-0.21072	0.04715	-0.21057	-0.59448	-0.2446	0.015259	0.017853	-0.02533	0.086365	-0.047455	-0.10941	-0.29511	0.001221	-0.019073
41.708	-0.011444	0.31967	0.038757	0.007019	-0.037537	0.004578	0.059967	-0.007935	-0.21622	0.003204	-0.001984	0.006256	-0.078583	0.16052	-0.004578	-0.039215	-0.00946	-0.18951	-0.035095	-0.02655	-0.10757	-0.45548	-0.27237	-0.014038	0.020905	0.033112	0.1152	-0.003357	-0.090637	-0.13763	0.000305	-0.019226
41.709	-0.011902	0.35141	0.023499	0.00946	-0.21469	-0.071869	0.066528	-0.020752	-0.044403	0.008545	0.013123	0.007629	-0.082245	0.16281	-0.00061	-0.039063	-0.040436	-0.1857	-0.056915	-0.027161	-0.019989	-0.32547	-0.29327	-0.012054	-0.000458	0.0737	0.034332	0.046539	-0.080109	-0.2092	-0.000458	-0.021667
41.71	0.012512	0.35461	0.025635	-0.009003	-0.25818	-0.13809	0.092621	-0.03952	-0.034637	-0.00061	0.015106	0.010223	-0.082703	0.15854	0.009308	-0.031738	-0.055847	-0.215	0.04364	-0.029144	0.068817	-0.21622	-0.25223	-0.029449	0.007629	0.023193	0.00824	-0.003357	-0.28671	-0.46371	0.001831	-0.020905
